<?xml version="1.0" encoding="utf-8"?>
<!-- Generator: Adobe Illustrator 16.0.0, SVG Export Plug-In . SVG Version: 6.00 Build 0)  -->
<!DOCTYPE svg PUBLIC "-//W3C//DTD SVG 1.1//EN" "http://www.w3.org/Graphics/SVG/1.1/DTD/svg11.dtd">
<svg version="1.1" id="Layer_1" xmlns="http://www.w3.org/2000/svg" xmlns:xlink="http://www.w3.org/1999/xlink" x="0px" y="0px"
	 width="1152px" height="1440px" viewBox="0 0 1152 1440" enable-background="new 0 0 1152 1440" xml:space="preserve">
<g>
	<path fill="#015F2B" stroke="#000000" stroke-width="4.0691" d="M590.013,1409.093c0,0,509.157-224.725,545.78-780.723
		c27.563-452.134-8.11-492.736-8.11-492.736S1044.467,32.435,578.348,32.435c-477.078,0-565.974,111.323-565.974,111.323
		s-11.86,298.184,1.45,524.571C26.581,885.269,167.18,1242.617,590.013,1409.093z"/>
	<path fill="#FFFFFF" d="M129.612,425.11l-82.557,0.563l-0.044-6.306c10.85-2.232,19.984-9.337,27.371-21.315
		c6.834-11.062,10.258-22.504,10.295-34.315l13.951-7.936c0.021,3.758,0.043,6.492,0.048,8.2c0.045,6.033,1.35,12.566,3.923,19.612
		c3.27,8.854,7.314,13.273,12.132,13.237c3.086-0.021,6.678-2.104,10.783-6.224c-4.325-0.09-8.284-3.694-11.867-10.849
		c-3.007-6.248-4.522-11.808-4.56-16.699c-0.037-3.87,0.851-7.302,2.645-10.271c2.009-3.42,4.832-5.151,8.462-5.181
		c3.839-0.022,7.123,1.26,9.857,3.858c2.735,2.585,4.121,5.81,4.141,9.666c0.025,3.066-1.2,5.06-3.656,5.99
		c-1.129,0.454-3.599,0.755-7.41,0.896l0.012,2.895c-0.411,6.465,2.574,9.69,8.95,9.637c1.797-0.005,3.974-0.225,6.548-0.642
		c-2.11,6.648-5.255,12.388-9.42,17.218c-5.19,5.758-10.792,8.651-16.808,8.694c-8.637,0.051-15.607-6.59-20.915-19.947
		c-5.828,12.889-13.137,23.349-21.934,31.375l67.894-0.468l0.157,21.896l-7.903,0.052L129.612,425.11z"/>
	<path fill="#FFFFFF" d="M40.406,401.248c-0.24-7.36-2.126-10.98-5.644-10.864c-1.986,0.073-2.91,2.114-2.78,6.146
		c0.213,6.09,2.515,10.797,6.921,14.095C40.056,408.522,40.561,405.391,40.406,401.248 M13.745,431.114l19.977-15.873
		c-5.184-4.258-7.91-10.019-8.152-17.307c-0.125-3.745,0.705-7.308,2.5-10.68c2.014-3.813,4.757-5.793,8.238-5.902
		c3.703-0.124,6.575,1.819,8.628,5.852c1.563,3.024,2.411,6.638,2.55,10.839c0.207,5.688-0.95,10.504-3.451,14.462
		c1.825,2.441,4.157,4.128,6.986,5.061l0.271,7.674c-3.695-1.245-7.111-3.188-10.279-5.813
		c-5.277,5.307-12.915,13.474-22.905,24.513L13.745,431.114z"/>
	<path fill="#FFFFFF" d="M135.513,533.623l-81.847,5.263l-0.38-5.856l7.193-7.557c6.962,0.432,13.92,0.807,20.874,1.112
		c8.213,0.476,15.154,0.528,20.813,0.175c2.493-0.175,4.83-1.882,7.001-5.159c2.177-3.284,3.189-6.23,3.02-8.854
		c-0.308-4.772-4.935-7.617-13.884-8.533l-0.375-5.793c3.844-1.282,6.877-4.331,9.105-9.153c2.14-4.363,3.079-8.71,2.808-13.027
		c-0.256-3.979-1.862-7.535-4.808-10.659c-2.948-3.123-6.429-4.561-10.425-4.301c-6.5,0.417-10.666,4.42-12.47,11.991
		c1.9-0.615,3.064-0.938,3.528-0.959c3.174-0.208,5.886,1.039,8.1,3.737c1.979,2.369,3.079,5.257,3.298,8.646
		c0.206,3.163-0.724,5.971-2.793,8.442c-2.067,2.455-4.734,3.788-8.026,4.001c-4.428,0.288-8.128-1.582-11.128-5.606
		c-2.61-3.483-4.075-7.544-4.362-12.191c-0.499-7.711,1.929-14.361,7.286-19.938c5.359-5.602,11.913-8.636,19.648-9.134
		c6.156-0.391,11.839,1.429,17.079,5.489c5.226,4.047,8.033,9.084,8.422,15.109c0.493,7.602-2.478,15.592-8.892,23.985
		c6.591,1.869,10.094,5.966,10.513,12.329c0.396,6.355-3.46,12.641-11.59,18.862l21.713-1.394l-5.835-90.81l7.902-0.515
		l7.513,116.987l-7.894,0.515L135.513,533.623z"/>
	<path fill="#FFFFFF" d="M146.164,624.991L63.959,635.02l-0.63-6.611l3.621,0.053c9.611-1.168,18.905-5.801,27.899-13.879
		c9.947-8.774,14.36-17.732,13.253-26.874c-0.064-0.571-0.563-2.229-1.473-4.978c-3.246,5.558-6.691,8.557-10.327,8.995
		c-3.418,0.417-6.443-0.697-9.07-3.345c-2.631-2.645-4.147-5.708-4.574-9.198c-0.578-4.72,0.315-8.885,2.689-12.476
		c2.376-3.615,5.88-5.696,10.527-6.252c5.879-0.712,11.047,1.575,15.485,6.881c3.788,4.7,6.053,10.151,6.816,16.362
		c0.785,6.442-0.918,13.532-5.103,21.265c-4.025,7.245-8.942,12.829-14.74,16.751l46.738-5.688l-8.803-72.162l7.896-0.96
		l11.933,97.744l-7.865,1.299L146.164,624.991z"/>
	<polygon fill="#FFFFFF" points="151.779,661.05 71.371,674.128 78.145,661.974 150.028,650.286 147.454,634.492 155.356,633.201 
		162.121,674.846 154.227,676.122 	"/>
	<path fill="#FFFFFF" d="M171.021,765.37c-1.715-6.716-5.674-11.402-11.89-14.046c-1.774,6.906-5.329,12.64-10.652,17.152
		l20.987,15.072C171.901,776.953,172.421,770.882,171.021,765.37 M185.215,812.14l-79.684,20.29c0-3.226,1.971-7.888,5.931-14.016
		c13.165-1.655,26.14-4.105,38.909-7.344c6.386-1.629,10.862-7.492,13.453-17.58c-9.17-6.979-23.318-16.89-42.429-29.703
		l5.365-10.734l11.986,9.021l2.066-0.161c6.063-1.554,9.209-6.746,9.429-15.541l-6.15-4.104l-1.409-17.918
		c9.134,2.375,17.103,6.861,23.933,13.501c6.833,6.631,11.401,14.474,13.694,23.491c1.738,6.814,0.777,15.201-2.873,25.144
		c-3.666,9.967-8.217,17.27-13.678,21.945l26.807-6.816l6.574,25.834l-7.535,1.904L185.215,812.14z"/>
	<path fill="#FFFFFF" d="M110.266,792.259c-1.076-3.489-2.858-8.635-5.379-15.481c-2.506-6.848-4.303-12.022-5.381-15.483
		c-2.588-8.37-2.549-15.656,0.11-21.844c2.785-6.566,8.35-11.144,16.706-13.722c5.271-1.645,8.665-1.38,10.177,0.761l-0.441,4.427
		c-2.5-0.233-4.962,0-7.39,0.749c-11.243,3.506-14.477,13.005-9.668,28.53c0.946,3.036,2.499,7.228,4.675,12.563
		c2.18,5.338,3.565,8.975,4.174,10.938c2.792,9,3.788,14.763,3.013,17.271c0.837,3.079-0.045,6.979-2.633,11.698
		c-2.397,4.194-5.094,7.419-8.099,9.648C113.814,813.896,113.867,803.9,110.266,792.259"/>
	<path fill="#FFFFFF" d="M157.563,860.961c-14.735,5.128-22.637,13.956-23.693,26.507l1.21,2.448
		c1.232-2.714,2.924-4.442,5.081-5.206c2.809-0.968,5.585-0.54,8.34,1.29c2.765,1.833,4.671,4.268,5.72,7.302
		c0.982,2.815,0.771,5.6-0.645,8.329c-1.408,2.729-3.518,4.604-6.319,5.569c-4.003,1.395-7.866,0.733-11.575-1.935
		c-3.109-2.315-5.381-5.558-6.841-9.766c-3.188-9.149-2.359-17.959,2.5-26.477c4.861-8.506,11.893-14.354,21.12-17.565
		c15.336-5.336,31.301-3.886,47.877,4.37l-12.396-35.625l7.544-2.642l24.85,71.4l-7.274,2.535
		c-4.281-11.948-11.464-20.979-21.544-27.063C180.719,857.998,169.393,856.824,157.563,860.961"/>
	<path fill="#FFFFFF" d="M221.888,950.714c-8.325-9.16-17.835-17.518-28.537-25.056c-0.112,15.558-3.526,29.982-10.241,43.25
		L221.888,950.714z M240.207,951.756l-4.662,2.187l0.505,1.085c3.145,6.713,2.968,14.514-0.521,23.457
		c-3.48,8.927-8.575,14.982-15.284,18.122c-4.333,2.021-8.533,2.606-12.579,1.729c-4.515-1.025-7.763-3.652-9.742-7.888
		c-1.262-2.668-1.708-5.541-1.333-8.621c0.365-3.078,1.833-5.204,4.383-6.393c2.456-1.172,4.926-1.217,7.426-0.146
		c2.485,1.068,4.332,2.842,5.506,5.364c1.515,3.225,1.906,6.629,1.151,10.175c1.846-0.353,3.172-0.732,4-1.114
		c4.942-2.315,7.81-6.921,8.606-13.811c0.609-5.939-0.293-11.612-2.689-16.991l-59.07,27.706l-2.697-5.743
		c16.178-17.199,21.507-37.726,15.99-61.532l9.119-10.732c16.396,11.406,31.279,23.707,44.634,36.916l3.555-1.671l-29.131-62.091
		l7.184-3.354l49.928,106.438l-7.181,3.372L240.207,951.756z"/>
	<path fill="#FFFFFF" d="M268.841,1004.463l-68.74,42.254l1.073-15.498l62.984-34.381l-12.428-20.2l7.719-4.751
		c0.417,0.688,1.4,2.552,2.948,5.601c1.546,3.063,2.881,5.511,4.011,7.359c5.432,8.812,10.752,11.611,15.996,8.386
		c-0.866-18.971,3.751-31.579,13.831-37.768c3.585-2.197,7.756-2.698,12.521-1.479c4.281,1.113,7.989,3.237,11.134,6.392
		l-2.677,4.442c-2.33-0.951-4.726-1.938-7.218-2.934c-3.424-1.202-5.717-1.462-6.877-0.763c-2.329,1.438-3.217,4.78-2.659,10.014
		c0.659,8.899,0.96,13.827,0.887,14.81c-0.485,5.731-2.898,9.954-7.251,12.651c-4.371,2.668-10.22,3.048-17.535,1.114l8.928,14.544
		l-7.719,4.749L268.841,1004.463z"/>
	<path fill="#FFFFFF" d="M325.138,1077.503l-63.891,51.607l-5.88-7.302c-0.082-0.088-0.059-0.233,0.045-0.47
		c0.512-0.997,2.5-2.901,5.965-5.688c4.339-3.518,11.01-8.562,20.006-15.13c8.989-6.568,15.607-11.567,19.872-15.015
		c2.031-1.64,3.336-6.979,3.908-15.979c0.558-9.018-0.015-14.572-1.708-16.686c-1.497-1.847-3.747-2.639-6.758-2.376
		c-2.444,0.234-4.793,1.041-7.045,2.421c1.914,4.369,2.669,8.841,2.279,13.43c-0.511,4.983-2.499,8.868-5.952,11.654
		c-2.572,2.082-5.52,2.785-8.849,2.111c-3.334-0.671-6.069-2.346-8.209-5.015c-3.579-4.428-4.391-9.119-2.428-14.075
		c-8.251-0.79-14.021-3.226-17.312-7.313c-1.938-2.391-2.906-5.162-2.889-8.313c0-3.17,1.157-5.659,3.453-7.537
		c7.247-5.836,16.883-5.836,28.917,0.028c0.552-10.526-2.465-20.23-9.046-29.115l6.098-4.929c5.5,7.172,8.87,12.785,10.132,16.862
		c1.442,5.218,1.101,11.729-1.042,19.558c4.267-1.847,8.848-2.316,13.768-1.438c4.912,0.912,8.753,3.052,11.521,6.483
		c2.845,3.517,3.939,8.794,3.31,15.832c-0.175,3.051-1.146,8.692-2.881,16.92l15.211-12.287l16.382,20.276l-6.106,4.927
		L325.138,1077.503z"/>
	<path fill="#FFFFFF" d="M399.141,1138.054l-50.324,64.979l-4.561-3.521l-0.791-10.321c4.84-5.015,9.646-10.087,14.396-15.159
		c5.688-5.926,10.278-11.144,13.754-15.63c1.532-1.994,1.796-4.867,0.789-8.681c-1.018-3.781-2.556-6.479-4.616-8.093
		c-3.767-2.916-8.972-1.307-15.613,4.854l-4.576-3.549c1.599-3.738,1.344-8.049-0.775-12.917c-1.834-4.484-4.456-8.063-7.866-10.703
		c-3.145-2.432-6.869-3.575-11.15-3.432c-4.279,0.149-7.65,1.807-10.099,4.974c-3.996,5.16-3.756,10.922,0.718,17.283
		c0.693-1.918,1.188-3.048,1.464-3.4c1.949-2.521,4.679-3.724,8.18-3.595c3.095,0.091,5.999,1.189,8.705,3.286
		c2.525,1.951,4.029,4.532,4.514,7.713c0.501,3.183-0.278,6.084-2.294,8.692c-2.727,3.52-6.582,5.075-11.581,4.664
		c-4.356-0.353-8.367-1.937-12.061-4.812c-6.122-4.719-9.5-10.966-10.146-18.677c-0.643-7.711,1.416-14.631,6.165-20.775
		c3.776-4.881,8.908-7.932,15.41-9.177c6.492-1.248,12.126-0.03,16.888,3.649c6.02,4.664,10.049,12.17,12.104,22.491
		c5.744-3.694,11.144-3.607,16.161,0.293c5.03,3.898,7.193,10.938,6.48,21.127l13.363-17.258l-71.785-55.608l4.867-6.276
		l92.672,71.799l-4.869,6.272L399.141,1138.054z"/>
	<path fill="#FFFFFF" d="M482.54,1251.676c-14.03-3.841-26.478-14.337-37.349-31.461c-8.819-13.87-15.213-29.47-19.179-46.857
		l6.428-0.908c3.243,5.395,7.347,14.544,12.303,27.473c4.017,10.322,8.078,17.887,12.198,22.669
		c6.246,6.918,15.343,11.993,27.308,15.277c4.82,1.317,9.668,1.685,14.544,1.114c6.362-0.852,10.102-3.345,11.222-7.42
		c0.96-3.519-0.851-7.445-5.424-11.787c-2.903,1.084-5.71,1.262-8.453,0.499c-3.622-0.981-6.599-2.786-8.936-5.426
		c-2.718-2.989-3.613-6.187-2.683-9.589c0.799-2.945,2.732-5.103,5.788-6.451c3.053-1.35,6.037-1.61,8.97-0.82
		c2.162,0.601,4.213,1.847,6.135,3.783c4.103-1.817,6.552-4.163,7.338-7.009c2.155-7.917-1.797-13.254-11.868-16.01
		c-5.866-1.598-11.61-1.877-17.249-0.82c-6.385,1.202-11.317,3.929-14.808,8.166c4.661,2.698,6.346,6.407,5.058,11.13
		c-1.504,5.48-5.424,7.373-11.766,5.629c-3.938-1.085-6.846-3.139-8.715-6.188c-1.877-3.05-2.287-6.479-1.231-10.321
		c2.396-8.782,9.2-14.354,20.415-16.714c9.104-1.979,18.421-1.673,27.928,0.909c6.555,1.803,11.762,5.293,15.631,10.467
		c4.105,5.617,5.294,11.613,3.555,17.977c-1.686,6.144-4.653,10.938-8.922,14.383c6.049,6.965,7.933,14.614,5.652,22.973
		c-1.737,6.364-6.311,10.995-13.713,13.932C495.948,1253.024,489.233,1253.496,482.54,1251.676"/>
	<path fill="#FFFFFF" d="M608.786,1184.823c-6.938,0.438-12.257,3.517-15.979,9.205c6.466,3.036,11.435,7.625,14.924,13.753
		l18.647-18.063C620.311,1186.083,614.445,1184.439,608.786,1184.823 M657.107,1179.429l5.453,82.215
		c-3.106-0.582-7.271-3.386-12.476-8.384c0.572-13.237,0.425-26.418-0.455-39.585c-0.438-6.567-5.365-12.035-14.749-16.418
		c-8.504,7.755-20.729,19.853-36.739,36.298l-9.538-7.238l10.74-10.104l0.205-2.065c-0.412-6.246-4.896-10.291-13.438-12.109
		l-5.116,5.308l-17.72-1.936c3.98-8.621,9.854-15.718,17.616-21.274c7.771-5.555,16.312-8.65,25.607-9.264
		c7.007-0.456,15.087,2.036,24.22,7.504c9.118,5.47,15.481,11.365,19.085,17.652l-1.845-27.914l26.566-1.76l0.525,7.9
		L657.107,1179.429z"/>
	<path fill="#FFFFFF" d="M623.271,1251.367c-3.578,0.688-8.912,1.924-15.979,3.651c-7.082,1.744-12.418,2.964-15.981,3.666
		c-8.604,1.656-15.833,0.864-21.676-2.376c-6.224-3.399-10.145-9.321-11.789-17.77c-1.026-5.334-0.389-8.618,1.916-9.88l4.346,0.88
		c-0.644,2.418-0.732,4.838-0.257,7.256c2.169,11.26,11.263,15.351,27.255,12.241c3.108-0.614,7.479-1.701,13.02-3.253
		c5.558-1.585,9.354-2.583,11.35-2.963c9.294-1.789,15.131-2.154,17.534-1.113c3.165-0.471,6.947,0.836,11.393,3.958
		c3.929,2.891,6.846,5.969,8.753,9.233C645.174,1250.239,635.22,1249.068,623.271,1251.367"/>
	<path fill="#FFFFFF" d="M721.5,1160.368l-31.609,9.572c3.226,1.645,8.033,3.681,14.429,6.145
		c6.391,2.464,10.995,4.398,13.795,5.806l-18.576,23.487c14.163,1.174,27.108,4.809,38.909,10.864L721.5,1160.368z
		 M730.122,1157.729l23.926,78.994l-4.896,1.467c-0.952-0.764-2.71-3.197-5.247-7.301c-4.956-8.122-13.108-13.02-24.456-14.691
		c-9.441-1.29-19.268-0.381-29.526,2.728l-11.173-7.479c7.36-10.203,15.424-19.469,24.19-27.824
		c-10.158-2.742-20.76-3.813-31.786-3.197l-1.333-4.396l-14.719,4.456l-2.287-7.538l86.221-26.123l2.288,7.534L730.122,1157.729z"/>
	<path fill="#FFFFFF" d="M731.938,1251.018c-6.771,2.888-9.44,6.024-8.004,9.396c0.791,1.892,3.05,2.053,6.759,0.469
		c5.614-2.404,9.134-6.332,10.557-11.786C738.857,1248.743,735.75,1249.391,731.938,1251.018 M769.589,1265.517l-22.108-13.136
		c-2.024,6.566-6.394,11.273-13.078,14.131c-3.459,1.469-7.082,1.967-10.879,1.482c-4.31-0.516-7.154-2.404-8.531-5.643
		c-1.481-3.491-0.719-6.904,2.287-10.296c2.242-2.577,5.307-4.688,9.177-6.331c5.233-2.229,10.146-2.888,14.749-1.966
		c1.613-2.581,2.374-5.321,2.228-8.254l7.067-3.006c0.177,3.885-0.379,7.801-1.685,11.699c6.847,3.021,17.239,7.241,31.152,12.595
		L769.589,1265.517z"/>
	<path fill="#FFFFFF" d="M795.977,1097.633c-5.044-2.152-13.544-2.447-25.493-0.865c-11.245,1.468-19.677,3.621-25.262,6.452
		c-2.668,1.319-5.966,4.516-9.939,9.56c-4.311,5.6-5.909,9.529-4.78,11.758c1.938,3.842,9.501,7.858,22.683,11.993l16.872-8.49
		l3.608,7.187l-16.861,8.486l37.167,73.98l-16.772-1.069c-6.331-18.518-16.111-41.302-29.365-68.395l-19.75,9.939l-3.608-7.173
		l19.75-9.937c-4.602-1.128-9.265-2.229-13.972-3.298c-6.229-1.849-10.025-4.136-11.421-6.894
		c-2.096-4.163-0.294-10.729,5.368-19.733c5.218-8.354,10.173-13.722,14.866-16.067c7.008-3.549,16.771-5.895,29.293-7.095
		c13.354-1.353,23.235-0.588,29.672,2.313L795.977,1097.633z"/>
	<path fill="#FFFFFF" d="M881.452,1121.136c-2.199,1.788-4.705,2.552-7.538,2.302c-2.841-0.248-5.174-1.48-6.991-3.694
		c-3.095-3.799-2.683-7.317,1.275-10.57c3.341-2.728,6.511-2.289,9.484,1.351c0.864,1.055,1.6,2.375,2.214,3.943
		c1.026-3.228,0.44-6.203-1.832-8.959c-2.185-2.669-4.853-4.235-8.004-4.692c-3.154-0.468-6.042,0.384-8.667,2.522
		c-2.625,2.17-4.249,5.337-4.866,9.561c-0.513,3.665-1.025,7.331-1.524,10.965c7.256,0.559,13.094,3.533,17.507,8.915
		c4.224,5.114,5.101,10.966,2.696,17.521c-1.906,5.557-5.601,10.57-11.054,15.027c-13.256,10.894-29.852,14.059-49.763,9.5
		c-17.387-3.989-32.839-12.259-46.388-24.837l5.719-4.046c16.759,10.557,30.204,16.919,40.349,19.059
		c15.512,3.49,29.452,0.146,41.844-10.025c10.292-8.434,13.192-15.381,8.707-20.849c-1.803-2.199-4.984-3.109-9.544-2.772
		c-0.455,3.387-2.009,6.145-4.634,8.313c-2.727,2.228-5.675,3.459-8.854,3.693c-3.65,0.207-6.566-1.025-8.738-3.663
		c-1.891-2.303-2.52-5.001-1.891-8.096c0.616-3.094,2.052-5.568,4.338-7.445c2.202-1.789,5.016-3.108,8.446-3.93
		c2.315-4.867,2.17-8.886-0.438-12.082c-4.706-5.745-10.642-5.704-17.74,0.146c-9.677,7.918-14.41,17.185-14.25,27.784
		c4.823-1.891,8.752-0.996,11.787,2.713c1.786,2.199,2.404,4.633,1.816,7.329c-0.614,2.698-2.007,4.956-4.223,6.762
		c-3.077,2.533-6.51,3.62-10.276,3.27c-3.769-0.354-6.904-2.082-9.427-5.147c-5.309-6.494-5.627-14.674-0.923-24.525
		c3.678-7.713,9.19-14.589,16.579-20.646c5.895-4.821,11.627-7.419,17.229-7.768c5.996-0.223,11.099,2.241,15.335,7.399
		c1.013,1.219,2.037,2.492,3.123,3.799c0.836-6.069,2.786-10.364,5.821-12.873c4.092-3.342,8.371-4.882,12.856-4.572
		c4.486,0.322,8.416,2.551,11.817,6.686c2.536,3.093,3.707,7.008,3.517,11.757C886.143,1115.006,884.501,1118.614,881.452,1121.136
		 M860.236,1056.861l5.001,6.101l-106.338,87.231l-5.016-6.101L860.236,1056.861z"/>
	<path fill="#FFFFFF" d="M904.558,956.932c-5.454,0.558-13.021,4.398-22.724,11.555c-9.122,6.716-15.438,12.637-18.974,17.796
		c-1.67,2.465-3.036,6.834-4.076,13.15c-1.069,6.994-0.584,11.188,1.468,12.596c3.548,2.435,12.037,2.345,25.479-0.221
		l10.688-15.612l6.468,4.427l-10.704,15.602l68.438,46.768l-15.22,7.157c-14.545-13.095-34.16-28.313-58.864-45.657l-12.418,18.121
		l-6.465-4.425l12.418-18.125c-4.544,1.201-9.119,2.434-13.725,3.738c-6.288,1.351-10.7,1.161-13.237-0.586
		c-3.844-2.625-5.438-9.234-4.794-19.835c0.527-9.825,2.285-16.904,5.234-21.217c4.441-6.464,11.832-13.254,22.211-20.349
		c11.011-7.608,20.027-11.716,27.036-12.3L904.558,956.932z"/>
	<path fill="#FFFFFF" d="M946.43,951.756c-3.987,14.398-4.721,28.225-2.199,41.503c13.107-10.23,27.271-16.976,42.518-20.229
		L946.43,951.756z M937.279,936.846l72.867,38.428l-2.61,4.972c-11.611-1.085-22.771,0.85-33.485,5.835
		c-10.717,4.967-19.233,12.226-25.567,21.754l-17.447,4.313c-1.319-21.318,0.528-43.193,5.544-65.565l-3.461-1.847l-35.1,66.591
		l-7.008-3.695l47.118-89.345l7.008,3.68L937.279,936.846z"/>
	<path fill="#FFFFFF" d="M970.972,849.803l77.175,28.986l-3.28,8.723c-0.046,0.104-0.192,0.191-0.44,0.205
		c-1.115,0.073-3.753-0.689-7.904-2.243c-5.218-1.965-12.929-5.133-23.148-9.5c-10.175-4.368-17.842-7.535-22.941-9.442
		c-2.451-0.922-7.699,0.676-15.763,4.811c-8.034,4.118-12.535,7.448-13.503,9.998c-0.837,2.229-0.367,4.573,1.391,7.067
		c1.453,1.994,3.346,3.604,5.689,4.867c2.787-3.844,6.246-6.729,10.411-8.708c4.573-2.056,8.942-2.304,13.121-0.735
		c3.093,1.174,5.22,3.372,6.316,6.57c1.115,3.225,1.085,6.448-0.116,9.646c-2.007,5.337-5.745,8.385-11.229,9.118
		c3.489,7.536,4.31,13.738,2.462,18.648c-1.068,2.889-2.99,5.132-5.734,6.716c-2.737,1.598-5.494,1.861-8.28,0.819
		c-8.796-3.313-13.724-11.697-14.792-25.156c-9.396,4.852-16.26,12.357-20.568,22.52l-7.185-2.696
		c3.401-8.387,6.553-14.148,9.44-17.302c3.783-3.871,9.646-6.891,17.534-9.003c-3.724-2.727-6.421-6.42-8.136-11.109
		c-1.703-4.691-1.776-9.093-0.221-13.226c1.584-4.253,5.57-7.889,11.936-10.925c2.71-1.391,8.032-3.444,15.978-6.141l-18.501-6.95
		l9.179-24.411l7.17,2.696L970.972,849.803z"/>
	<path fill="#FFFFFF" d="M1031.992,884.33c0.408,4.017,0.849,8.079,1.35,12.139c0.674,5.06,1.744,8.885,3.192,11.466
		c4.225-5.862,10.763-11.437,19.59-16.714l-22.782-7.184L1031.992,884.33z M1043.572,914.474l-14.017,6.654
		c-2.432-10.674-4.016-17.899-4.721-21.697c-1.437-8.21-2.124-15.569-2.082-22.106l4.019-4.838l45.11,14.249
		c-2.537,2.404-6.185,5.131-10.938,8.181c-4.751,3.02-8.134,5.468-10.129,7.347C1047.563,905.413,1045.143,909.489,1043.572,914.474
		"/>
	<path fill="#FFFFFF" d="M975.986,749.142c-5.001,2.214-10.967,8.226-17.945,18.018c-6.539,9.207-10.689,16.831-12.432,22.813
		c-0.821,2.844-0.733,7.417,0.264,13.737c1.173,6.964,2.931,10.776,5.335,11.479c4.135,1.202,12.17-1.541,24.103-8.212l5.192-17.944
		l7.534,2.201l-5.19,17.942l79.668,23.119l-12.213,11.555c-17.914-7.932-41.327-16.259-70.27-24.995l-6.128,21.185l-7.536-2.184
		l6.13-21.172c-3.932,2.58-7.889,5.219-11.876,7.888c-5.571,3.284-9.825,4.485-12.786,3.636c-4.484-1.287-8.076-7.067-10.79-17.329
		c-2.581-9.499-3.138-16.771-1.67-21.803c2.17-7.534,7.082-16.303,14.733-26.286c8.078-10.672,15.38-17.387,21.874-20.13
		L975.986,749.142z"/>
	<path fill="#FFFFFF" d="M1018.212,728.118c-0.087,14.981,2.797,28.573,8.679,40.771c9.998-13.354,21.93-23.617,35.771-30.789
		L1018.212,728.118z M1005.191,716.146l80.417,18.053l-1.247,5.5c-11.377,2.009-21.556,6.816-30.54,14.425
		c-8.987,7.626-15.292,16.877-18.884,27.741l-15.851,8.706c-6.918-20.317-10.906-41.958-11.977-64.947l-3.859-0.864l-16.505,73.598
		l-7.536-1.697l22.124-98.575l7.55,1.686L1005.191,716.146z"/>
	<path fill="#FFFFFF" d="M1012.347,676.547l35.727,5.496c-9.981-18.025-16.668-33.427-20-46.204l9.901-12.727
		c10.084,11.386,25.013,18.604,44.743,21.647c5.629,0.858,12.521,0.006,20.733-2.58l-0.854,6.633
		c-15.361,2.853-30.054,3.196-44.097,1.027c-6.277-0.955-11.657-2.976-16.13-6.023c4.646,17.005,13.227,30.089,25.746,39.237
		l-12.2,10.857l-45.183-6.958l-3.433,22.257l-7.887-1.219l15.379-99.857l7.904,1.229L1012.347,676.547z"/>
	<path fill="#FFFFFF" d="M1024.689,585.5c4.367,3.806,8.196,5.883,11.464,6.238c4.854,0.536,12.065-0.249,21.673-2.337
		c9.586-2.097,16.8-2.873,21.652-2.337c8.227,0.905,14.236,2.929,17.986,6.085c4.073,3.417,6.746,9.125,8.035,17.13l-5.396,2.482
		c-0.762-9.644-3.165-14.695-7.241-15.144c-4.837-0.527-12.066,0.552-21.671,3.248c-9.602,2.697-16.813,3.784-21.666,3.241
		c-6.774-0.741-15.276-4.884-25.525-12.426l-2.744,24.938l-7.887-0.864l5.574-50.616l7.887,0.864L1024.689,585.5z"/>
	<polygon fill="#FFFFFF" points="1028.146,546.803 1109.634,553.834 1100.077,563.862 1027.226,557.564 1025.863,573.363 
		1017.977,572.672 1021.598,530.685 1029.497,531.359 	"/>
	<path fill="#FFFFFF" d="M1034.571,438.458l81.85,3.76l-0.274,5.852l-7.945,6.714c-6.88-1.188-13.738-2.318-20.614-3.396
		c-8.093-1.369-14.983-2.19-20.644-2.447c-2.491-0.125-4.998,1.349-7.534,4.385c-2.509,3.033-3.845,5.863-3.958,8.496
		c-0.221,4.793,4.072,8.153,12.841,10.042l-0.263,5.836c-3.959,0.851-7.307,3.563-10.058,8.136
		c-2.608,4.114-4.004,8.355-4.191,12.695c-0.193,4.004,1.009,7.72,3.572,11.173c2.609,3.438,5.896,5.251,9.884,5.434
		c6.496,0.3,11.056-3.226,13.693-10.58c-1.963,0.435-3.167,0.631-3.635,0.617c-3.17-0.146-5.718-1.679-7.639-4.604
		c-1.701-2.571-2.48-5.558-2.333-8.95c0.145-3.168,1.379-5.857,3.71-8.071c2.315-2.222,5.13-3.255,8.414-3.108
		c4.444,0.214,7.932,2.479,10.454,6.804c2.229,3.746,3.226,7.938,3.021,12.58c-0.351,7.719-3.506,14.058-9.442,19.007
		c-5.923,4.97-12.754,7.266-20.494,6.905c-6.158-0.279-11.598-2.727-16.363-7.354c-4.735-4.616-6.979-9.944-6.697-15.989
		c0.335-7.646,4.146-15.297,11.389-22.966c-6.286-2.579-9.293-7.057-8.999-13.458c0.29-6.379,4.794-12.229,13.516-17.55
		l-21.667-0.98l-4.18,91.169l-7.904-0.358l5.396-117.114l7.89,0.361L1034.571,438.458z"/>
	<path fill="#FFFFFF" d="M1112.218,384.644c0.06,7.221-2.948,10.856-9.047,10.916c-2.404,0.029-4.383-1.07-5.878-3.3
		c-1.527-2.22-2.289-4.588-2.316-7.109c-0.031-2.523,0.85-4.818,2.607-6.907c1.76-2.08,3.902-3.138,6.421-3.151
		c2.303-0.021,4.238,0.961,5.808,2.953C1111.383,380.034,1112.186,382.233,1112.218,384.644 M1034.014,354.229l0.353,37.292
		c5.16-7.226,8.419-11.766,9.766-13.597c3.813-4.936,7.519-9.078,11.127-12.419c3.009,3.848,8.313,12.346,15.937,25.479
		c5.529-15.046,13.577-27.502,24.179-37.355L1034.014,354.229z M1033.93,346.327l82.201-0.792l-0.279,7.905
		c-11.127,2.163-19.764,8.173-25.948,18.03c-5.603,8.82-8.4,19.231-8.4,31.186l-10.66,8.648c-6.771-9.338-13.53-20.174-20.23-32.467
		c-5.365,10.059-9.001,21.216-10.938,33.487l-5.101,0.059l0.146,16.509l-7.886,0.073l-0.939-98.631l7.891-0.074L1033.93,346.327z"/>
	<path fill="#FFFFFF" d="M959.918,318.473h15.262l-114.869,521.64c0,0-166.344-20.336-248.888,31.11l-17.166-17.14
		c135.63-52.648,255.278-31.917,255.278-31.917L959.918,318.473z M225.429,318.473h-15.263l114.864,521.64
		c0,0,166.328-20.336,248.893,31.11l17.152-17.14c-135.607-52.648-255.271-31.917-255.271-31.917L225.429,318.473z M553.976,891.982
		l8.388-8.388c0,0-63.469-47.179-251.292-23.926L193.454,337.064h-16.392l121.253,545.741
		C298.315,882.806,398.826,841.313,553.976,891.982 M887.021,882.806l121.262-545.741h-16.406L874.268,859.67
		c-187.82-23.253-251.291,23.926-251.291,23.926l8.388,8.388C786.508,841.313,887.021,882.806,887.021,882.806 M860.311,840.112
		c-179.892-18.736-248.888,31.11-248.888,31.11l11.554,12.372c86.149-48.646,251.291-23.926,251.291-23.926l119.4-530.561h-20.835
		L860.311,840.112z M325.03,840.112c179.881-18.736,248.893,31.11,248.893,31.11l-11.561,12.372
		C476.206,834.95,311.07,859.67,311.07,859.67L191.671,329.109h20.834L325.03,840.112z"/>
	<path fill="none" stroke="#000000" stroke-width="4.7853" d="M959.918,318.473h15.262l-114.869,521.64
		c0,0-166.344-20.336-248.888,31.11l-17.166-17.14c135.63-52.648,255.278-31.917,255.278-31.917L959.918,318.473z M225.429,318.473
		h-15.263l114.864,521.64c0,0,166.328-20.336,248.893,31.11l17.152-17.14c-135.607-52.648-255.271-31.917-255.271-31.917
		L225.429,318.473z M553.976,891.982l8.388-8.388c0,0-63.469-47.179-251.292-23.926L193.454,337.064h-16.392l121.253,545.741
		C298.315,882.806,398.826,841.313,553.976,891.982z M887.021,882.806l121.262-545.741h-16.406L874.268,859.67
		c-187.82-23.253-251.291,23.926-251.291,23.926l8.388,8.388C786.508,841.313,887.021,882.806,887.021,882.806z M860.311,840.112
		c-179.892-18.736-248.888,31.11-248.888,31.11l11.554,12.372c86.149-48.646,251.291-23.926,251.291-23.926l119.4-530.561h-20.835
		L860.311,840.112z M325.03,840.112c179.881-18.736,248.893,31.11,248.893,31.11l-11.561,12.372
		C476.206,834.95,311.07,859.67,311.07,859.67L191.671,329.109h20.834L325.03,840.112z"/>
	<path fill="none" stroke="#F7F619" stroke-width="9.5726" d="M594.257,65.943v212.189 M533.632,72.321l63.819,198.636
		l62.281-193.85 M487.37,91.469l110.081,179.489l119.666-168.325 M447.639,124.808l149.813,146.15L757.01,139.331 M417.115,169.678
		l180.336,101.28l186.68-88.561 M398.025,218.998l197.039,51.959l201.822-43.881 M391.648,270.958h410.017"/>
	<path fill="#FFFFFF" d="M739.445,270.958c0,79.74-64.627,144.381-144.383,144.381c-79.743,0-144.39-64.641-144.39-144.381
		c0-79.743,64.646-144.398,144.39-144.398C674.818,126.559,739.445,191.214,739.445,270.958"/>
	<path fill="none" stroke="#BE0B29" stroke-width="9.5726" d="M563.512,307.287c4.605,39.444,29.161,68.166,29.161,68.166
		s42.914-43.25,11.158-120.457c-5.295-15.297-13.554-49.474-17.544-66.209C573.299,247.595,560.037,277.7,563.512,307.287z"/>
	<path fill="#FFFFFF" d="M594.257,854.084c135.63-52.648,255.278-31.917,255.278-31.917l113.256-516.919
		c0,0-237.698-51.042-370.118,70.205c-132.425-121.246-370.148-70.205-370.148-70.205l113.281,516.919
		c0,0,119.663-20.731,255.271,31.917H594.257z"/>
	<path fill="none" stroke="#000000" stroke-width="4.7853" d="M594.257,854.084c135.63-52.648,255.278-31.917,255.278-31.917
		l113.256-516.919c0,0-237.698-51.042-370.118,70.205c-132.425-121.246-370.148-70.205-370.148-70.205l113.281,516.919
		c0,0,119.663-20.731,255.271,31.917H594.257z"/>
	<path d="M533.225,444.824c-3.944-3.299-8.064-4.949-12.33-4.949c-8.986,0-15.182,2.996-18.583,8.979h0.82
		c3.292-0.108,5.917,0.953,7.896,3.174c1.966,2.208,2.955,4.827,2.955,7.796c0,0.587-0.052,1.211-0.162,1.889L533.225,444.824z
		 M570.537,438.08h-13.283v72.909c-1.51-0.962-4.448-3.437-8.798-7.467l1.087-37.075c0-1.622-1.144-4.094-3.43-7.407
		c-2.293-3.296-4.245-5.431-5.88-6.382l-27.613,24.584l-12.279-3.912c1.884-1.547,3.797-3.219,5.734-4.996
		c1.933-1.794,2.9-3.701,2.9-5.736c0-4.828-1.591-7.245-4.786-7.245c-1.313,0-3.22,0.484-5.688,1.442
		c-2.48,0.965-4.43,1.439-5.866,1.439c-1.422,0-2.83-0.631-4.208-1.929c-1.386-1.296-2.059-2.595-2.059-3.944
		c0-1.053,0.49-2.338,1.473-3.864c7.125-10.986,17.154-16.479,30.083-16.479c8.445,0,16.172,3.209,23.196,9.616
		c6.684,6.12,10.57,12.952,11.669,20.506c-2.411-12.883-3.606-26.958-3.606-42.242l4.36,2.878l0.485,0.712
		c0.322,4.897,3.167,7.287,8.496,7.187L570.537,438.08z"/>
	<path d="M559.423,517.496l-10.849-15.789c-2.419-3.473-9.436-5.212-21.055-5.212c-2.739,0-6.273,0.103-10.6,0.284
		c-4.332,0.201-6.984,0.292-7.976,0.292c-7.235,0-13.429-2.042-18.575-6.122c-5.146-4.084-7.726-9.244-7.726-15.484
		c0-4.801,0.321-8.725,0.98-11.812l4.604,4.052c-0.497,0.961-0.745,2.061-0.745,3.307c0,8.082,6.251,12.856,18.721,14.295
		c22.233,2.604,33.777,4.041,34.659,4.334C553.23,493.682,559.423,502.964,559.423,517.496"/>
	<path d="M656.567,469.378c0,8.567-2.9,15.798-8.724,21.678c-6.144,6.261-13.973,9.395-23.531,9.395
		c-13.486,0-24.674-6.69-33.558-20.039c-4.182-6.34-9.44-18.207-15.798-35.607l5.263,1.447c3.731,11.455,8.893,20.85,15.46,28.162
		c8.548,9.427,18.605,14.146,30.101,14.146c5.601,0,10.79-1.917,15.556-5.736c4.765-3.82,7.154-8.191,7.154-13.131
		c0-1.641-0.381-3.621-1.158-5.945c-0.981-2.905-2.126-4.346-3.461-4.346l-0.483,0.135c-3.62,4.055-7.229,6.9-10.849,8.542
		c-3.945,1.841-8.725,2.758-14.296,2.758c-5.159,0-9.501-1.3-12.989-3.903c-3.839-2.796-5.763-6.404-5.763-10.839
		c0-3.483,1.219-6.222,3.624-8.25c2.401-2.022,5.644-3.04,9.705-3.04c2.74,0,5.158,0.842,7.228,2.521
		c2.097,1.685,3.137,3.729,3.137,6.137c0,1.924-1.157,4.326-3.504,7.213l0.323,0.295c2.844-0.102,6.362-2.081,10.541-5.911
		c3.841-3.467,6.377-6.589,7.58-9.375l0.498-0.293c3.284,0.1,7.185,3.419,11.685,9.96
		C654.488,461.527,656.567,466.201,656.567,469.378 M661.435,438.079h-89.276l-8.387-7.405h89.104L661.435,438.079z"/>
	<path d="M608.085,512.784c-1.861,0-3.535,0.433-5.03,1.276c-1.465,0.85-2.214,2.031-2.214,3.545c0,2.172,1.482,3.251,4.442,3.251
		c2.199,0,4.429-0.521,6.687-1.548c2.261-1.043,3.812-2.365,4.693-3.979C616.663,513.638,613.801,512.784,608.085,512.784
		 M648.885,541.054c-2.638-4.234-6.186-8.349-10.673-12.389c-4.838-4.234-9.545-7.35-14.146-9.375
		c-4.164,5.837-9.706,8.752-16.612,8.752c-3.52,0-6.627-0.868-9.368-2.603c-3.064-1.927-4.604-4.393-4.604-7.377
		c0-3.363,1.598-6.139,4.764-8.302c3.197-2.171,6.746-3.264,10.703-3.264c2.729,0,6.452,1.146,11.173,3.418l1.319-0.86
		c0-2.677-0.234-5.205-0.677-7.606l0.677-2.563c2.286,1.43,3.78,3.582,4.429,6.471c0.231,0.949,0.38,3.555,0.497,7.768
		c10.968,6.047,17.536,11.621,19.733,16.707c2.081,1.719,3.122,4.124,3.122,7.189C649.223,537.985,649.105,539.322,648.885,541.054"
		/>
	<path d="M705.667,492.672c0,4.735-2.478,7.103-7.402,7.103c-2.536,0-4.589-0.771-6.188-2.321c-1.584-1.539-2.375-3.472-2.375-5.807
		c0-1.741,0.791-3.208,2.375-4.417c1.599-1.198,3.373-1.814,5.35-1.814C702.927,485.416,705.667,487.834,705.667,492.672
		 M698.762,480.75l-3.284-2.875c-1.522-6.926-3.047-13.893-4.588-20.91c-1.627-8.062-2.447-15.092-2.447-21.049
		c0-6.633,2.55-9.951,7.683-9.951c2.521,0,4.486,1.539,5.922,4.615c0.97,2.203,1.467,4.658,1.467,7.353
		c0,5.774-0.615,12.919-1.802,21.479C700.728,466.542,699.744,473.65,698.762,480.75"/>
	<path d="M535.622,563.723H521.57v73.807l-3.131-2.168c-2.53-9.171-8.394-18.63-17.608-28.378
		c-5.153,7.055-11.794,10.581-19.91,10.581c-11.091,0-21.077-6.166-29.953-18.509c-7.021-9.739-11.735-20.404-14.153-31.971
		l5.102,1.887c4.816,11.604,9.038,19.618,12.646,24.064c6.472,8.126,14.749,12.194,24.827,12.194c4.268,0,7.939-1.144,11.018-3.397
		c3.058-2.252,4.591-5.215,4.591-8.859c0-2.594-0.705-5.354-2.127-8.228c-1.649-3.555-3.722-5.287-6.238-5.188
		c-1.861,5.002-5.587,7.494-11.157,7.494c-3.283,0-6.294-0.933-9.028-2.813c-2.743-1.876-4.112-4.278-4.112-7.176
		c0-3.275,1.757-5.827,5.262-7.669c2.851-1.538,6.305-2.31,10.357-2.31c7.234,0,13.613,2.678,19.165,8.019
		c5.524,5.352,8.296,11.304,8.296,17.848c0,1.349-0.184,2.663-0.526,3.904l8.431,14.169v-47.302h-78.475l-8.226-7.405h100.626
		L535.622,563.723z"/>
	<path d="M571.425,563.496h-14.911v75.826l-7.719-7.508v-54.142c0-4.336-1.715-7.864-5.139-10.614
		c-3.428-2.749-7.63-3.932-12.607-3.536l-8.459-7.221c2.411-0.283,4.712-0.422,6.905-0.422c7.125,0,12.278,1.771,15.458,5.335
		c1.979,2.015,4.275,6.596,6.905,13.718c-2.037-9.046-3.063-19.591-3.063-31.632l3.093,2.317c0.619,2.987,1.02,4.92,1.233,5.782
		c0.718,1.638,1.847,3.281,3.394,4.919h6.717L571.425,563.496z"/>
	<path d="M627.626,613.899v-50.175h-38.38c8.019,5.69,13.618,10.361,16.801,14.027c5.042,5.691,7.58,11.813,7.58,18.363v3.336
		C616.924,602.438,621.586,607.259,627.626,613.899 M649.928,563.724h-14.589v73.807l-3.429-3.325
		c-4.254-14.194-11.614-22.843-22.055-25.921v0.272c-0.113,1.434-2.008,2.87-5.688,4.336c-3.68,1.485-6.509,2.201-8.473,2.201
		c-3.96,0-7.259-1.101-9.896-3.317c-2.632-2.226-3.945-5.08-3.945-8.541c0-4.053,1.708-7.239,5.118-9.549
		c2.978-2.035,6.891-3.043,11.742-3.043c3.301,0,5.336,0.485,6.1,1.458c0-5.573-1.467-9.66-4.427-12.262
		c-1.878-1.631-5.454-3.125-10.729-4.479c-5.822-1.532-10.054-3.068-12.69-4.609c-2.089-1.254-4.562-3.555-7.428-6.936
		c-3.18-3.741-5.6-6.25-7.249-7.497h79.236L649.928,563.724z"/>
	<path d="M685.523,563.496h-14.911v75.826l-7.711-7.508v-54.142c0-4.336-1.73-7.864-5.16-10.614
		c-3.432-2.749-7.624-3.932-12.597-3.536l-8.459-7.221c2.405-0.283,4.706-0.422,6.906-0.422c7.125,0,12.271,1.771,15.468,5.335
		c1.966,2.015,4.253,6.596,6.891,13.718c-2.038-9.046-3.049-19.591-3.049-31.632l3.08,2.317c0.614,2.987,1.023,4.92,1.229,5.782
		c0.72,1.638,1.849,3.281,3.4,4.919h6.718L685.523,563.496z"/>
	<path d="M737.951,619.107v-55.385h-29.835c5.162,2.784,11.729,8.394,19.732,16.834c-4.502,3.738-11.023,9.537-19.571,17.408
		C721.181,601.886,731.061,608.945,737.951,619.107 M713.775,633.041c-2.42,0-4.562-0.756-6.423-2.288
		c-1.86-1.548-2.785-3.376-2.785-5.47c0-2.028,0.794-3.777,2.375-5.263c1.585-1.482,3.533-2.226,5.835-2.226
		c2.403,0,4.547,0.744,6.407,2.226c1.862,1.485,2.8,3.281,2.8,5.4c0,2.023-0.805,3.785-2.374,5.333
		C717.999,632.283,716.062,633.041,713.775,633.041 M760.572,563.723h-14.364v74.249c-3.404-3.154-7.272-8.064-11.655-14.704
		c-3.74-5.39-7.229-9.092-10.513-11.117c-5.045-3.068-12.436-4.847-22.183-5.343l-10.997-12.251
		c8.326-7.323,16.448-13.47,24.32-18.472c-3.398-2.979-8.647-4.902-15.772-5.775c-5.043-0.577-9.325-2.306-12.813-5.187
		c-3.519-2.884-6.92-5.817-10.205-8.804h76.296L760.572,563.723z"/>
	<path d="M457.559,735.047c0-2.068-1.423-4.434-4.28-7.111c-2.735,1.65-5.585,2.494-8.533,2.494c-5.272,0-7.903-2.037-7.903-6.086
		c0-2.418,0.873-4.504,2.611-6.284c1.744-1.777,3.922-2.679,6.537-2.679c2.289,0,4.252,1.045,5.888,3.135
		c3.38-2.729,5.066-5.058,5.066-7.036c0-1.762-1.431-3.299-4.267-4.692c-2.411-1.155-4.708-1.761-6.891-1.761
		c-2.963,0-7.289,1.946-12.978,5.793c-5.687,3.849-8.53,7.038-8.53,9.528c0,5.298,2.358,10.283,7.083,14.96
		c4.726,4.648,10.049,6.998,15.979,6.998c2.529,0,4.867-0.662,7.016-1.982C456.497,738.988,457.559,737.244,457.559,735.047
		 M412.183,711.902c-1.327-1.725-4.829-6.799-10.555-15.229c-2.641,0-5.448,2.017-8.4,6.03c-2.757,3.646-4.128,6.723-4.128,9.198
		c0,4.415,2.25,6.614,6.767,6.614C400.587,718.516,406.025,716.318,412.183,711.902 M472.197,689.358h-60.673
		c-0.332,0.937-0.493,2.182-0.493,3.724c0,2.858,0.989,6.521,2.955,11.012c2.301,5.15,4.714,7.754,7.229,7.754
		c0.871,0,2.624-1.173,5.255-3.447c3.503-3.043,6.294-5.166,8.372-6.415c3.943-2.291,7.777-3.425,11.501-3.425
		c5.146,0,9.632,1.374,13.465,4.105c3.836,2.729,5.741,6.322,5.741,10.721c0,4.232-2.683,7.987-8.073,11.252
		c4.431,6.432,6.646,11.141,6.646,14.111c0,3.557-1.813,6.34-5.426,8.355c-3.183,1.742-6.905,2.604-11.175,2.604
		c-9.975,0-17.709-5.551-23.186-16.66c-2.073,11.109-9.198,16.66-21.367,16.66c-13.7,0-23.838-6.232-30.412-18.693
		c-2.954-5.791-6.307-17.301-10.028-34.487l6.081,2.744c1.958,10.444,3.88,17.629,5.741,21.606
		c3.166,6.855,8.531,12.463,16.088,16.807c3.507,2.033,6.402,3.043,8.703,3.043c4.385,0,8.681-1.301,12.89-3.922
		c4.219-2.641,6.322-5.791,6.322-9.475c0-1.945-0.702-3.795-2.081-5.553l-0.637-0.293l1.479,0.293
		c-1.86,1.154-4.661,2.289-8.394,3.389c-3.729,1.121-6.691,1.65-8.885,1.65c-5.819,0-10.284-1.447-13.414-4.381
		c-3.131-2.896-4.684-6.965-4.684-12.131c0-3.538,1.23-7.439,3.702-11.692c2.478-4.252,5.358-7.329,8.658-9.257h-33.378
		l-8.063-7.403h111.483L472.197,689.358z"/>
	<path d="M508.777,689.119h-14.904v75.834l-7.725-7.512v-54.137c0-4.323-1.716-7.863-5.138-10.608
		c-3.432-2.733-7.632-3.923-12.61-3.539l-8.459-7.221c2.421-0.289,4.714-0.439,6.904-0.439c7.127,0,12.278,1.796,15.46,5.352
		c1.973,2.015,4.273,6.597,6.915,13.708c-2.048-9.033-3.072-19.57-3.072-31.614l3.086,2.311c0.615,2.988,1.032,4.931,1.23,5.774
		c0.725,1.646,1.845,3.298,3.407,4.928h6.715L508.777,689.119z"/>
	<path d="M584.664,689.358h-14.303v75.16l-3.058-3.613v-3.59c0.442-8.064-2.295-16.953-8.194-26.631
		c-6.672-10.959-14.318-16.42-22.952-16.42l-2.142,0.44c3.532,4.308,5.292,7.679,5.292,10.08c0,6.449-3.717,9.676-11.156,9.676
		c-10.388,0-15.585-4.438-15.585-13.307c0-4.729,1.942-8.686,5.829-11.931c3.875-3.224,8.554-4.835,14.022-4.835
		c11.371,0,21.259,7.787,29.689,23.329v-38.359h-56.041l-8.213-7.403h78.263L584.664,689.358z"/>
	<path d="M709.038,689.358H646.48v30.258c5.924-3.939,11.803-7.882,17.622-11.841c6.921-4.416,13.343-7.694,19.265-9.82
		l14.324,9.418c-7.349,12.426-11.011,23.825-11.011,34.215c0,4.713,0.998,11.986,2.961,21.789l-5.673-2.434
		c-3.328-13.49-5.001-23.551-5.001-30.182c0-5.5,0.924-11.62,2.787-18.349c-7.462,2.292-14.118,5.958-19.983,10.962
		c-5.862,5.002-10.219,10.682-13.063,17.025l-11.023-9.916v-41.125h-9.384l-8.386-7.404h80.724L709.038,689.358z"/>
	<path d="M745.033,689.119h-14.896v75.834l-7.711-7.512v-54.137c0-4.323-1.73-7.863-5.162-10.608
		c-3.432-2.733-7.626-3.923-12.608-3.539l-8.443-7.221c2.403-0.289,4.707-0.439,6.893-0.439c7.138,0,12.284,1.796,15.466,5.352
		c1.965,2.015,4.268,6.597,6.903,13.708c-2.035-9.033-3.047-19.57-3.047-31.614l3.077,2.311c0.615,2.988,1.025,4.931,1.231,5.774
		c0.706,1.646,1.849,3.298,3.401,4.928h6.714L745.033,689.119z"/>
	<path d="M804.717,685.088c5.468,0,10.221,1.393,14.208,4.142c4.02,2.73,6.011,6.453,6.011,11.18c0,8.284-2.109,14.4-6.291,18.361
		c4.795,5.389,7.186,10.317,7.186,14.754c0,6.541-2.229,11.635-6.656,15.264c-4.439,3.594-10.365,5.41-17.813,5.41
		c-22.228,0-39.85-20.912-52.896-62.733l5.585,2.621c6.79,14.841,12.358,25.216,16.744,31.1
		c8.869,11.854,18.928,17.775,30.188,17.775c4.807,0,8.972-1.1,12.461-3.336c3.943-2.531,5.923-5.809,5.923-9.879
		c0-2.51-1.644-4.836-4.911-6.965c-2.186,1.945-4.707,2.916-7.535,2.916c-2.949,0-5.38-0.805-7.301-2.381
		c-1.922-1.594-2.876-3.703-2.876-6.305c0-2.418,0.954-4.546,2.831-6.45c1.891-1.868,4.223-2.826,6.994-2.826
		c2.535,0,4.821,0.552,6.816,1.635c3.987-1.722,5.98-4.581,5.98-8.597c0-5.516-3.372-8.282-10.085-8.282
		c-4.416,0-8.946,0.987-13.563,2.948c-4.618,1.963-8.107,4.529-10.426,7.664c3.447,1.921,5.178,4.835,5.178,8.741
		c0,4.141-2.802,6.191-8.401,6.191c-7.685,0-11.521-3.569-11.521-10.702c0-6.34,3.985-11.802,11.99-16.31
		C789.661,687.071,797.049,685.088,804.717,685.088"/>
	<path fill="none" stroke="#BE0B29" stroke-width="9.5726" d="M589.476,280.522c0,0-7.645,26.999,0,58.233
		C597.115,369.985,589.476,280.522,589.476,280.522z"/>
</g>
<g id="Arabic" display="none">
	<path display="inline" fill="none" stroke="#000000" stroke-width="7.18" d="M776.156,459.607c0,1.985-1.628,3.584-3.604,3.584
		c-1.968,0-3.581-1.599-3.581-3.584c0-1.975,1.613-3.585,3.581-3.585C774.528,456.022,776.156,457.634,776.156,459.607z"/>
	<path display="inline" fill="none" stroke="#000000" stroke-width="8.9155" stroke-linecap="round" d="M875.06,420.924
		c0,0,39.089,24.727-31.9,43.872"/>
	
		<line display="inline" fill="none" stroke="#000000" stroke-width="8.9155" stroke-linecap="round" x1="507.294" y1="486.973" x2="540.804" y2="468.631"/>
	
		<line display="inline" fill="none" stroke="#000000" stroke-width="8.9155" stroke-linecap="round" x1="641.465" y1="486.973" x2="674.965" y2="468.631"/>
	
		<line display="inline" fill="none" stroke="#000000" stroke-width="8.9155" stroke-linecap="round" x1="749.444" y1="495.483" x2="782.959" y2="477.135"/>
	
		<line display="inline" fill="none" stroke="#000000" stroke-width="8.9155" stroke-linecap="round" x1="850.43" y1="394.504" x2="883.93" y2="376.163"/>
	
		<line display="inline" fill="none" stroke="#000000" stroke-width="8.9155" stroke-linecap="round" x1="373.013" y1="480.037" x2="406.523" y2="461.688"/>
	
		<line display="inline" fill="none" stroke="#000000" stroke-width="8.9155" stroke-linecap="round" x1="297.084" y1="386.749" x2="330.593" y2="368.409"/>
	<path display="inline" fill="none" stroke="#000000" stroke-width="8.9155" stroke-linecap="round" stroke-linejoin="round" d="
		M741.044,374.652c0,0,7.609,29.53,18.354,0c10.366,30.319,16.76,0,16.76,0"/>
	<path display="inline" fill="none" stroke="#000000" stroke-width="8.9155" stroke-linecap="round" stroke-linejoin="round" d="
		M800.874,418.526c0,0,31.903,20.738-30.317,20.738c-62.224,0-39.482-22.74-39.482-22.74"/>
	<path display="inline" fill="none" stroke="#000000" stroke-width="8.9155" stroke-linecap="round" stroke-linejoin="round" d="
		M676.432,414.538c0,0,36.683,26.719-26.728,26.719"/>
	<path display="inline" fill="none" stroke="#000000" stroke-width="8.9155" stroke-linecap="round" stroke-linejoin="round" d="
		M609.43,409.76c0,0,9.576,13.563,1.584,28.705c-7.975,15.161-35.099-11.957-35.099-11.957"/>
	<path display="inline" fill="none" stroke="#000000" stroke-width="8.9155" stroke-linecap="round" stroke-linejoin="round" d="
		M527.263,415.339c0,0,24.727,18.348-11.963,18.348c0,0,11.963,8.768,11.963,12.763c0,3.985-23.135,25.532-63.028,0"/>
	
		<polyline display="inline" fill="none" stroke="#000000" stroke-width="8.9155" stroke-linecap="round" stroke-linejoin="round" points="
		457.857,394.592 477.395,375.057 494.556,394.592 	"/>
	
		<polyline display="inline" fill="none" stroke="#000000" stroke-width="8.9155" stroke-linecap="round" stroke-linejoin="round" points="
		346.471,387.152 366.011,367.608 383.167,387.152 	"/>
	<path display="inline" fill="none" stroke="#000000" stroke-width="8.9155" stroke-linecap="round" stroke-linejoin="round" d="
		M405.209,420.124c0,0-21.536-2.396-21.536,9.575c0,11.957,15.943,11.957,15.943,11.957s-22.328,19.147-33.494-4.787l-0.403-39.923
		l0.403,39.923c0,0-11.165,8.781-22.343,8.781c-11.165,0-5.58-5.585-5.58-5.585l-1.831,10.93l5.27-0.308l-3.438-7.683
		c0,0-17.533,2.659-23.517-0.53c-5.98-3.182-3.606-44.291-3.606-44.291"/>
	<path display="inline" fill="none" stroke="#000000" stroke-width="8.9155" stroke-linecap="round" d="M536.426,393.001
		c0,1.98-1.6,3.585-3.585,3.585c-1.979,0-3.59-1.605-3.59-3.585c0-1.978,1.611-3.593,3.59-3.593
		C534.827,389.408,536.426,391.023,536.426,393.001z"/>
	<path display="inline" fill="none" stroke="#000000" stroke-width="8.9155" stroke-linecap="round" d="M611.014,386.625
		c0,2.199-1.789,3.986-3.986,3.986c-2.199,0-3.987-1.787-3.987-3.986c0-2.213,1.788-3.996,3.987-3.996
		C609.225,382.628,611.014,384.411,611.014,386.625z"/>
	<path display="inline" fill="none" stroke="#000000" stroke-width="8.9155" stroke-linecap="round" d="M672.444,394.592
		c0,2.206-1.788,3.986-3.989,3.986c-2.197,0-3.986-1.78-3.986-3.986c0-2.199,1.789-3.981,3.986-3.981
		C670.656,390.611,672.444,392.394,672.444,394.592z"/>
</g>
</svg>
